HIERARCHY
ROOT hip
{
  OFFSET 0 0 0
  CHANNELS 6 Xposition Yposition Zposition Zrotation Yrotation Xrotation
  JOINT abdomen
  {
    OFFSET 0 20.6881 -0.73152
    CHANNELS 3 Zrotation Xrotation Yrotation
    JOINT chest
    {
      OFFSET 0 11.7043 -0.48768
      CHANNELS 3 Zrotation Xrotation Yrotation
      JOINT neck
      {
        OFFSET 0 22.1894 -2.19456
        CHANNELS 3 Zrotation Xrotation Yrotation
        JOINT head
        {
          OFFSET -0.24384 7.07133 1.2192
          CHANNELS 3 Zrotation Xrotation Yrotation
          JOINT leftEye
          {
            OFFSET 4.14528 8.04674 8.04672
            CHANNELS 3 Zrotation Xrotation Yrotation
            End Site
            {
              OFFSET 1 0 0
            }
          }
          JOINT rightEye
          {
            OFFSET -3.6576 8.04674 8.04672
            CHANNELS 3 Zrotation Xrotation Yrotation
            End Site
            {
              OFFSET 1 0 0
            }
          }
        }
      }
      JOINT rCollar
      {
        OFFSET -2.68224 19.2634 -4.8768
        CHANNELS 3 Zrotation Xrotation Yrotation
        JOINT rShldr
        {
          OFFSET -8.77824 -1.95073 1.46304
          CHANNELS 3 Zrotation Xrotation Yrotation
          JOINT rForeArm
          {
            OFFSET -28.1742 -1.7115 0.48768
            CHANNELS 3 Zrotation Xrotation Yrotation
            JOINT rHand
            {
              OFFSET -22.5879 0.773209 7.07136
              CHANNELS 3 Zrotation Xrotation Yrotation
              JOINT rThumb1
              {
                OFFSET -1.2192 -0.487915 3.41376
                CHANNELS 3 Zrotation Xrotation Yrotation
                JOINT rThumb2
                {
                  OFFSET -3.37035 -0.52449 3.41376
                  CHANNELS 3 Zrotation Xrotation Yrotation
                  End Site
                  {
                    OFFSET -1.78271 -1.18214 1.43049
                  }
                }
              }
              JOINT rIndex1
              {
                OFFSET -7.75947 0.938293 5.60832
                CHANNELS 3 Zrotation Xrotation Yrotation
                JOINT rIndex2
                {
                  OFFSET -2.54057 -0.884171 1.56538
                  CHANNELS 3 Zrotation Xrotation Yrotation
                  End Site
                  {
                    OFFSET -1.62519 -0.234802 1.16502
                  }
                }
              }
              JOINT rMid1
              {
                OFFSET -8.24714 1.18213 3.41376
                CHANNELS 3 Zrotation Xrotation Yrotation
                JOINT rMid2
                {
                  OFFSET -3.10165 -0.590103 1.0647
                  CHANNELS 3 Zrotation Xrotation Yrotation
                  End Site
                  {
                    OFFSET -2.48547 -0.328903 0.83742
                  }
                }
              }
              JOINT rRing1
              {
                OFFSET -8.82822 0.546677 1.51678
                CHANNELS 3 Zrotation Xrotation Yrotation
                JOINT rRing2
                {
                  OFFSET -2.60934 -0.819778 -0.0198488
                  CHANNELS 3 Zrotation Xrotation Yrotation
                  End Site
                  {
                    OFFSET -2.33842 -0.294052 0.168128
                  }
                }
              }
              JOINT rPinky1
              {
                OFFSET -8.27202 -0.0477905 -0.4584
                CHANNELS 3 Zrotation Xrotation Yrotation
                JOINT rPinky2
                {
                  OFFSET -1.82734 -0.647385 -0.700984
                  CHANNELS 3 Zrotation Xrotation Yrotation
                  End Site
                  {
                    OFFSET -1.69225 -0.51767 -0.607171
                  }
                }
              }
            }
          }
        }
      }
      JOINT lCollar
      {
        OFFSET 2.68224 19.2634 -4.8768
        CHANNELS 3 Zrotation Xrotation Yrotation
        JOINT lShldr
        {
          OFFSET 8.77824 -1.95073 1.46304
          CHANNELS 3 Zrotation Xrotation Yrotation
          JOINT lForeArm
          {
            OFFSET 28.1742 -1.7115 0.48768
            CHANNELS 3 Zrotation Xrotation Yrotation
            JOINT lHand
            {
              OFFSET 22.5879 0.773209 7.07136
              CHANNELS 3 Zrotation Xrotation Yrotation
              JOINT lThumb1
              {
                OFFSET 1.2192 -0.487915 3.41376
                CHANNELS 3 Zrotation Xrotation Yrotation
                JOINT lThumb2
                {
                  OFFSET 3.37035 -0.52449 3.41376
                  CHANNELS 3 Zrotation Xrotation Yrotation
                  End Site
                  {
                    OFFSET 1.78271 -1.18214 1.43049
                  }
                }
              }
              JOINT lIndex1
              {
                OFFSET 7.75947 0.938293 5.60832
                CHANNELS 3 Zrotation Xrotation Yrotation
                JOINT lIndex2
                {
                  OFFSET 2.54057 -0.884171 1.56538
                  CHANNELS 3 Zrotation Xrotation Yrotation
                  End Site
                  {
                    OFFSET 1.62519 -0.234802 1.16502
                  }
                }
              }
              JOINT lMid1
              {
                OFFSET 8.24714 1.18213 3.41376
                CHANNELS 3 Zrotation Xrotation Yrotation
                JOINT lMid2
                {
                  OFFSET 3.10165 -0.590103 1.0647
                  CHANNELS 3 Zrotation Xrotation Yrotation
                  End Site
                  {
                    OFFSET 2.48547 -0.328903 0.83742
                  }
                }
              }
              JOINT lRing1
              {
                OFFSET 8.82822 0.546677 1.51678
                CHANNELS 3 Zrotation Xrotation Yrotation
                JOINT lRing2
                {
                  OFFSET 2.60934 -0.819778 -0.0198488
                  CHANNELS 3 Zrotation Xrotation Yrotation
                  End Site
                  {
                    OFFSET 2.33842 -0.294052 0.168128
                  }
                }
              }
              JOINT lPinky1
              {
                OFFSET 8.27202 -0.0477905 -0.4584
                CHANNELS 3 Zrotation Xrotation Yrotation
                JOINT lPinky2
                {
                  OFFSET 1.82734 -0.647385 -0.700984
                  CHANNELS 3 Zrotation Xrotation Yrotation
                  End Site
                  {
                    OFFSET 1.69225 -0.51767 -0.607171
                  }
                }
              }
            }
          }
        }
      }
    }
  }
  JOINT rButtock
  {
    OFFSET -8.77824 4.35084 1.2192
    CHANNELS 3 Zrotation Xrotation Yrotation
    JOINT rThigh
    {
      OFFSET 0 -1.70687 -2.19456
      CHANNELS 3 Zrotation Xrotation Yrotation
      JOINT rShin
      {
        OFFSET 0 -36.8199 0.73152
        CHANNELS 3 Zrotation Xrotation Yrotation
        JOINT rFoot
        {
          OFFSET 0.73152 -45.1104 -5.12064
          CHANNELS 3 Zrotation Xrotation Yrotation
          End Site
          {
            OFFSET -1.1221 -3.69964 12.103
          }
        }
      }
    }
  }
  JOINT lButtock
  {
    OFFSET 8.77824 4.35084 1.2192
    CHANNELS 3 Zrotation Xrotation Yrotation
    JOINT lThigh
    {
      OFFSET 0 -1.70687 -2.19456
      CHANNELS 3 Zrotation Xrotation Yrotation
      JOINT lShin
      {
        OFFSET 0 -36.8199 0.73152
        CHANNELS 3 Zrotation Xrotation Yrotation
        JOINT lFoot
        {
          OFFSET -0.73152 -45.1104 -5.12064
          CHANNELS 3 Zrotation Xrotation Yrotation
          End Site
          {
            OFFSET 1.1221 -3.69964 12.103
          }
        }
      }
    }
  }
}
MOTION
Frames:	9
Frame Time:	0.00833333
2.31023 80.781 176.257 -183.278 -4.1158 -150.354 -6.84722 3.19139 -7.06502 2.07949 2.3533 -1.80721 -4.46024 15.5488 -2.9101 13.7499 -40.7707 -0.259735 -0.0 0.0 0.0 -0.0 0.0 0.0 1.77003e-14 -3.67746e-13 -1.30018e-14 76.7575 1.06335 -18.7329 -11.9658 -5.42621 21.541 -1.52486 32.7697 5.18922 -3.32316e-09 -1.35864e-09 2.44722e-09 -5.6666e-09 -2.30124e-09 4.31089e-09 -3.32315e-09 -1.35862e-09 2.44721e-09 7.73091 5.47488 0.417314 -3.32317e-09 -1.35863e-09 2.44722e-09 2.90554 0.965183 0.102902 -3.32315e-09 -1.35864e-09 2.44722e-09 10.2786 0.731801 0.0259123 -3.32316e-09 -1.35863e-09 2.44722e-09 2.22167 -0.733487 -0.20892 1.78336e-14 -3.67756e-13 -1.32782e-14 -72.6259 34.7569 14.0101 16.1461 -8.82697 -29.9738 0.243991 13.9972 -2.00709 1.66204e-09 1.21393e-09 -1.22591e-09 2.85564e-09 2.08584e-09 -2.14854e-09 1.66203e-09 1.21393e-09 -1.22591e-09 -7.73091 5.47488 -0.417314 1.66204e-09 1.21393e-09 -1.22591e-09 -2.90554 0.965183 -0.102902 1.66203e-09 1.21393e-09 -1.22591e-09 -10.2786 0.731801 -0.0259123 1.66205e-09 1.21393e-09 -1.22591e-09 -2.22167 -0.733487 0.20892 -2.03217e-16 0.0 -3.88251e-19 -5.6041 -50.5946 -1.30929 -0.385172 38.963 0.490862 -0.80939 -24.4459 -1.1351 2.03217e-16 0.0 3.88251e-19 -14.5957 -55.4784 -15.23 0.19267 39.9653 -0.744321 -1.16894 -6.81164 -10.8233
2.27685 80.2024 176.698 -183.559 -3.9524 -148.827 -6.66459 4.36474 -6.99159 2.11497 2.02251 -1.77894 -4.41536 15.4203 -3.02806 14.1694 -43.033 0.152476 -0.0 0.0 0.0 -0.0 0.0 0.0 8.98835e-14 -8.28385e-14 2.22142e-14 76.7058 0.92817 -20.552 -12.1563 -5.55986 21.9109 -1.43443 31.9058 5.01898 -6.91023e-10 -2.1398e-09 -1.22488e-09 -1.21583e-09 -3.73054e-09 -2.09601e-09 -6.91008e-10 -2.13978e-09 -1.22489e-09 7.73091 5.47488 0.417314 -6.91024e-10 -2.1398e-09 -1.22489e-09 2.90554 0.965183 0.102902 -6.91015e-10 -2.1398e-09 -1.22489e-09 10.2786 0.731801 0.0259123 -6.91022e-10 -2.1398e-09 -1.22488e-09 2.22167 -0.733487 -0.20892 9.00785e-14 -8.28466e-14 2.18931e-14 -73.3085 35.4508 16.102 16.4347 -9.0998 -30.5901 0.208822 12.9642 -1.85363 -1.16767e-09 2.01854e-10 -1.36128e-10 -2.01951e-09 3.36345e-10 -2.22251e-10 -1.16768e-09 2.01852e-10 -1.36121e-10 -7.73091 5.47488 -0.417314 -1.16766e-09 2.01856e-10 -1.36125e-10 -2.90554 0.965183 -0.102902 -1.16768e-09 2.0185e-10 -1.36126e-10 -10.2786 0.731801 -0.0259123 -1.16766e-09 2.01858e-10 -1.36127e-10 -2.22167 -0.733487 0.20892 -2.03217e-16 0.0 -3.88251e-19 -6.10096 -53.5712 -1.5862 -0.426027 41.1536 0.547545 -1.05003 -25.2309 -1.57968 2.03217e-16 0.0 3.88251e-19 -16.2254 -58.1623 -16.7599 0.244799 41.7553 -0.800027 -1.39211 -7.43709 -11.0465
2.23814 79.554 177.097 -183.851 -3.7738 -147.497 -6.50524 5.6576 -6.9105 2.19263 1.65454 -1.75826 -4.38843 15.5341 -3.13129 14.6884 -45.5671 0.736604 -0.0 0.0 0.0 -0.0 0.0 0.0 1.293e-13 1.01782e-13 4.19933e-14 76.7448 0.888768 -22.1559 -12.3029 -5.66323 22.1975 -1.35979 31.1577 4.87447 9.42901e-10 -2.37682e-09 -3.32663e-09 1.55058e-09 -4.18239e-09 -5.76623e-09 9.42915e-10 -2.3768e-09 -3.32664e-09 7.73091 5.47488 0.417314 9.429e-10 -2.37682e-09 -3.32663e-09 2.90554 0.965183 0.102902 9.42908e-10 -2.37682e-09 -3.32663e-09 10.2786 0.731801 0.0259123 9.42901e-10 -2.37682e-09 -3.32662e-09 2.22167 -0.733487 -0.20892 1.29526e-13 1.01775e-13 4.16454e-14 -74.2117 35.8232 18.1199 16.6827 -9.33726 -31.1275 0.183807 12.126 -1.73037 -2.79998e-09 -4.2233e-10 5.44222e-10 -4.83101e-09 -7.41123e-10 9.78694e-10 -2.8e-09 -4.22331e-10 5.44231e-10 -7.73091 5.47488 -0.417314 -2.79998e-09 -4.22328e-10 5.44225e-10 -2.90554 0.965183 -0.102902 -2.8e-09 -4.22333e-10 5.44225e-10 -10.2786 0.731801 -0.0259123 -2.79998e-09 -4.22323e-10 5.44225e-10 -2.22167 -0.733487 0.20892 -2.03217e-16 0.0 -3.88251e-19 -6.60221 -56.439 -1.90038 -0.475986 43.4816 0.612291 -1.23083 -26.1074 -1.89468 2.03217e-16 0.0 3.88251e-19 -18.0453 -60.7595 -18.4496 0.304149 43.749 -0.862448 -1.65024 -8.11442 -11.3333
2.23154 78.8029 177.458 -184.002 -3.7422 -146.376 -6.35808 7.16006 -6.82938 2.32736 1.23113 -1.75064 -4.38836 15.9891 -3.21601 15.4021 -48.5651 1.61214 -0.0 0.0 0.0 -0.0 0.0 0.0 1.17702e-13 1.34159e-13 3.08384e-14 76.952 1.09211 -23.6171 -12.4347 -5.75642 22.4573 -1.28955 30.437 4.73688 1.18559e-09 -1.75161e-09 -3.11735e-09 1.97212e-09 -3.0935e-09 -5.41093e-09 1.1856e-09 -1.7516e-09 -3.11736e-09 7.73091 5.47488 0.417314 1.18559e-09 -1.75162e-09 -3.11736e-09 2.90554 0.965183 0.102902 1.1856e-09 -1.75161e-09 -3.11735e-09 10.2786 0.731801 0.0259123 1.18559e-09 -1.75161e-09 -3.11734e-09 2.22167 -0.733487 -0.20892 1.17918e-13 1.34153e-13 3.04855e-14 -75.3742 35.8476 20.1279 16.9126 -9.5626 -31.6259 0.166931 11.5264 -1.64266 -2.68405e-09 -4.74806e-10 6.28852e-10 -4.62951e-09 -8.28368e-10 1.12414e-09 -2.68406e-09 -4.74799e-10 6.28864e-10 -7.73091 5.47488 -0.417314 -2.68404e-09 -4.74802e-10 6.28856e-10 -2.90554 0.965183 -0.102902 -2.68406e-09 -4.74801e-10 6.28856e-10 -10.2786 0.731801 -0.0259123 -2.68404e-09 -4.74793e-10 6.28856e-10 -2.22167 -0.733487 0.20892 -2.03217e-16 0.0 -3.88251e-19 -7.10859 -59.148 -2.23376 -0.532784 45.9292 0.688252 -1.42073 -26.9659 -2.2048 2.03217e-16 0.0 3.88251e-19 -20.0879 -63.2196 -20.3735 0.371396 45.936 -0.932893 -1.95739 -8.90512 -11.6861
2.20244 77.9055 177.774 -184.22 -3.6239 -145.32 -6.22627 8.82643 -6.74154 2.50759 0.778318 -1.75073 -4.40739 16.6584 -3.29426 16.3886 -51.91 2.80312 -0.0 0.0 0.0 -0.0 0.0 0.0 7.51931e-14 8.36923e-14 4.58758e-15 77.3332 1.48337 -24.9675 -12.5708 -5.85276 22.7275 -1.21912 29.6866 4.5958 6.59799e-10 -5.61391e-10 -1.60492e-09 1.09873e-09 -9.98759e-10 -2.78609e-09 6.59801e-10 -5.61385e-10 -1.60493e-09 7.73091 5.47488 0.417314 6.59798e-10 -5.61403e-10 -1.60492e-09 2.90554 0.965183 0.102902 6.59804e-10 -5.61389e-10 -1.60492e-09 10.2786 0.731801 0.0259123 6.59796e-10 -5.61389e-10 -1.60491e-09 2.22167 -0.733487 -0.20892 7.53664e-14 8.36862e-14 4.24281e-15 -76.7089 35.6082 22.0944 17.1319 -9.7821 -32.1019 0.154065 11.0841 -1.57794 -1.59061e-09 -2.17401e-10 3.9351e-10 -2.74316e-09 -3.78192e-10 7.02305e-10 -1.59061e-09 -2.17382e-10 3.93526e-10 -7.73091 5.47488 -0.417314 -1.5906e-09 -2.17394e-10 3.93516e-10 -2.90554 0.965183 -0.102902 -1.59062e-09 -2.17384e-10 3.93516e-10 -10.2786 0.731801 -0.0259123 -1.59061e-09 -2.1738e-10 3.93515e-10 -2.22167 -0.733487 0.20892 -2.03217e-16 0.0 -3.88251e-19 -7.66237 -61.8015 -2.63324 -0.601735 48.5346 0.778887 -1.60605 -27.8346 -2.48846 2.03217e-16 0.0 3.88251e-19 -22.4284 -65.6303 -22.5869 0.450822 48.3306 -1.01513 -2.31828 -9.7829 -12.129
2.16029 77.1411 178.042 -184.429 -3.283 -144.297 -6.13717 10.4889 -6.63779 2.70803 0.317691 -1.75028 -4.42724 17.4147 -3.3673 17.6318 -55.2383 4.23711 -0.0 0.0 0.0 -0.0 0.0 0.0 2.77506e-14 1.52353e-14 -1.37693e-14 77.7356 1.76365 -26.0209 -12.6343 -5.8987 22.8527 -1.17037 29.1488 4.49603 -2.17263e-10 7.01063e-10 3.00078e-10 -3.70891e-10 1.23561e-09 5.25343e-10 -2.17269e-10 7.01057e-10 3.00068e-10 7.73091 5.47488 0.417314 -2.17264e-10 7.01044e-10 3.00078e-10 2.90554 0.965183 0.102902 -2.1726e-10 7.01066e-10 3.00081e-10 10.2786 0.731801 0.0259123 -2.17269e-10 7.01064e-10 3.00096e-10 2.22167 -0.733487 -0.20892 2.78705e-14 1.52297e-14 -1.40951e-14 -78.0473 35.1431 23.8102 17.2917 -9.94439 -32.4509 0.144422 10.7617 -1.53075 -1.81041e-10 1.32673e-10 5.0525e-11 -3.11896e-10 2.33055e-10 8.98825e-11 -1.81045e-10 1.32702e-10 5.0543e-11 -7.73091 5.47488 -0.417314 -1.81038e-10 1.32682e-10 5.05313e-11 -2.90554 0.965183 -0.102902 -1.81051e-10 1.32701e-10 5.05312e-11 -10.2786 0.731801 -0.0259123 -1.81045e-10 1.327e-10 5.05293e-11 -2.22167 -0.733487 0.20892 -2.03217e-16 0.0 -3.88251e-19 -8.2756 -64.4331 -3.15095 -0.694776 51.3096 0.884554 -1.62147 -28.9424 -2.47353 2.03217e-16 0.0 3.88251e-19 -25.1126 -68.0319 -25.0701 0.54783 50.9453 -1.11316 -2.71203 -10.6253 -12.6427
2.14677 76.0396 178.255 -184.46 -2.9732 -143.396 -6.11818 11.9795 -6.50659 2.90366 -0.129191 -1.74103 -4.43036 18.1305 -3.43588 19.0214 -58.193 5.76732 -0.0 0.0 0.0 -0.0 0.0 0.0 1.35375e-15 -6.35839e-15 -1.2424e-15 77.9822 1.64604 -26.5881 -12.5488 -5.84102 22.6773 -1.16198 29.0662 4.48024 -1.02837e-09 1.54296e-09 1.68705e-09 -1.73807e-09 2.74339e-09 2.94043e-09 -1.02838e-09 1.54295e-09 1.68704e-09 7.73091 5.47488 0.417314 -1.02837e-09 1.54294e-09 1.68705e-09 2.90554 0.965183 0.102902 -1.02837e-09 1.54297e-09 1.68705e-09 10.2786 0.731801 0.0259123 -1.02838e-09 1.54296e-09 1.68707e-09 2.22167 -0.733487 -0.20892 1.42936e-15 -6.36305e-15 -1.54058e-15 -79.2352 34.5004 25.0785 17.3454 -9.99983 -32.5678 0.137741 10.522 -1.49579 8.83265e-10 3.58204e-10 -1.87777e-10 1.52435e-09 6.29025e-10 -3.36434e-10 8.83265e-10 3.58237e-10 -1.87758e-10 -7.73091 5.47488 -0.417314 8.83269e-10 3.5821e-10 -1.8777e-10 -2.90554 0.965183 -0.102902 8.83258e-10 3.58236e-10 -1.8777e-10 -10.2786 0.731801 -0.0259123 8.83261e-10 3.58232e-10 -1.87774e-10 -2.22167 -0.733487 0.20892 -2.03217e-16 0.0 -3.88251e-19 -8.98713 -67.0756 -3.86443 -0.824495 54.2656 1.00651 -1.27122 -30.5177 -1.87371 2.03217e-16 0.0 3.88251e-19 -28.1975 -70.4698 -27.8197 0.669692 53.7926 -1.23284 -3.11226 -11.3109 -13.2057
2.16969 74.8236 178.396 -184.477 -2.6693 -142.492 -6.19037 13.2802 -6.33805 3.0992 -0.56646 -1.72074 -4.42112 18.8235 -3.49604 20.4795 -60.7236 7.33602 -0.0 0.0 0.0 -0.0 0.0 0.0 9.52201e-15 4.81323e-14 6.9952e-14 77.9791 0.924649 -26.6475 -12.2419 -5.62769 22.0653 -1.21286 29.6546 4.58807 -1.84383e-09 1.79791e-09 2.38079e-09 -3.12787e-09 3.24471e-09 4.15825e-09 -1.84384e-09 1.79791e-09 2.38078e-09 7.73091 5.47488 0.417314 -1.84383e-09 1.7979e-09 2.38079e-09 2.90554 0.965183 0.102902 -1.84383e-09 1.79792e-09 2.38079e-09 10.2786 0.731801 0.0259123 -1.84384e-09 1.79792e-09 2.38081e-09 2.22167 -0.733487 -0.20892 9.56196e-15 4.81295e-14 6.97024e-14 -80.3484 33.6894 25.9618 17.2627 -9.91555 -32.3859 0.133402 10.3424 -1.46976 1.509e-09 4.02685e-10 -2.68098e-10 2.60519e-09 7.12854e-10 -4.82927e-10 1.509e-09 4.02713e-10 -2.6808e-10 -7.73091 5.47488 -0.417314 1.50901e-09 4.02684e-10 -2.68092e-10 -2.90554 0.965183 -0.102902 1.509e-09 4.02711e-10 -2.68092e-10 -10.2786 0.731801 -0.0259123 1.509e-09 4.02707e-10 -2.68097e-10 -2.22167 -0.733487 0.20892 -2.03217e-16 0.0 -3.88251e-19 -9.98743 -69.8025 -4.96358 -1.00922 57.4815 1.14675 -0.156819 -33.0241 -0.170426 2.03217e-16 0.0 3.88251e-19 -31.9155 -73.0323 -31.0145 0.82737 56.9597 -1.38553 -3.50138 -11.7534 -13.8319
2.15074 73.5118 178.427 -184.64 -2.3399 -141.601 -6.33691 14.4717 -6.13802 3.30445 -1.00233 -1.69381 -4.40622 19.5446 -3.54881 22.0807 -63.003 9.03937 -0.0 0.0 0.0 -0.0 0.0 0.0 3.62028e-14 1.40143e-13 1.80335e-13 77.8409 -0.206511 -26.2988 -11.763 -5.29499 21.1325 -1.31363 30.734 4.79092 -2.82564e-09 1.7404e-09 2.84441e-09 -4.80912e-09 3.21785e-09 4.98265e-09 -2.82565e-09 1.74039e-09 2.8444e-09 7.73091 5.47488 0.417314 -2.82564e-09 1.74039e-09 2.8444e-09 2.90554 0.965183 0.102902 -2.82564e-09 1.7404e-09 2.84441e-09 10.2786 0.731801 0.0259123 -2.82565e-09 1.7404e-09 2.84442e-09 2.22167 -0.733487 -0.20892 3.62069e-14 1.40143e-13 1.80152e-13 -81.4272 32.7071 26.5344 17.0737 -9.72404 -31.9742 0.131158 10.2469 -1.45594 2.02122e-09 3.81492e-10 -3.02571e-10 3.49072e-09 6.84098e-10 -5.48255e-10 2.02122e-09 3.81507e-10 -3.02557e-10 -7.73091 5.47488 -0.417314 2.02123e-09 3.81478e-10 -3.02567e-10 -2.90554 0.965183 -0.102902 2.02122e-09 3.81505e-10 -3.02568e-10 -10.2786 0.731801 -0.0259123 2.02123e-09 3.81502e-10 -3.02575e-10 -2.22167 -0.733487 0.20892 -2.03217e-16 0.0 -3.88251e-19 -11.4233 -72.5666 -6.57255 -1.25249 60.9258 1.3196 1.76859 -36.1628 2.48447 2.03217e-16 0.0 3.88251e-19 -36.5867 -75.6611 -35.0379 1.03502 60.4119 -1.58564 -3.89224 -12.0356 -14.524
